<svg width="512" height="512" xmlns="http://www.w3.org/2000/svg">

 <g>
  <title>background</title>
  <rect fill="none" id="canvas_background" height="402" width="582" y="-1" x="-1"/>
 </g>
 <g>
  <title>Layer 1</title>
  <path fill="#ffffff" id="svg_2" d="m189.559,207.785c0.738,-2.116 0.492,-4.452 -0.673,-6.368c-6.212,-10.219 -9.45,-28.295 -9.625,-53.727c-0.196,-28.528 -20.514,-51.737 -45.291,-51.737l-29.062,0c-24.778,0 -45.096,23.209 -45.291,51.737c-0.176,25.433 -3.414,43.509 -9.626,53.727c-1.165,1.916 -1.411,4.252 -0.673,6.368c0.739,2.116 2.386,3.792 4.489,4.566c6.286,2.315 13.02,4.258 20.113,5.842c-9.7,8.722 -15.557,21.301 -15.557,34.997l0,45.013c0,8.09 6.582,14.672 14.672,14.672l16.415,0c4.143,0 7.5,-3.357 7.5,-7.5s-3.357,-7.5 -7.5,-7.5l-16.086,0l0,-44.685c0,-12.579 7.254,-23.76 18.399,-28.997c7.602,6.061 17.219,9.697 27.675,9.697s20.073,-3.635 27.675,-9.697c11.145,5.237 18.399,16.418 18.399,28.997l0,44.685l-46.074,0c-4.143,0 -7.5,3.357 -7.5,7.5s3.357,7.5 7.5,7.5l46.403,0c8.09,0 14.671,-6.582 14.671,-14.672l0,-45.013c0,-13.696 -5.856,-26.275 -15.557,-34.997c7.091,-1.584 13.825,-3.527 20.112,-5.842c2.106,-0.774 3.752,-2.449 4.492,-4.566zm-99.601,-18.376l0,-24.634c10.306,0.229 27.925,-0.485 40.251,-6.908c4.395,3.158 10.435,6.228 18.71,6.762l0,24.78c0,16.256 -13.225,29.481 -29.48,29.481s-29.481,-13.225 -29.481,-29.481zm71.631,14.176c1.503,-4.456 2.33,-9.22 2.33,-14.176l0,-30.614c0,-2.572 -1.087,-5.046 -2.981,-6.786c-1.899,-1.746 -4.474,-2.625 -7.041,-2.402c-6.809,0.579 -11.802,-1.086 -17.244,-5.749c-3.186,-2.729 -7.816,-2.961 -11.26,-0.561c-7.179,5.001 -23.096,7.449 -40.56,6.237c-2.543,-0.183 -5.08,0.722 -6.946,2.463c-1.861,1.737 -2.929,4.193 -2.929,6.74l0,30.672c0,4.956 0.827,9.72 2.33,14.176c-3.573,-0.795 -7.043,-1.686 -10.386,-2.683c5.022,-12.601 7.557,-30.104 7.716,-53.108c0.139,-20.314 13.728,-36.841 30.291,-36.841l29.062,0c16.562,0 30.151,16.526 30.291,36.841c0.158,23.005 2.69,40.507 7.715,53.108c-3.345,0.997 -6.815,1.888 -10.388,2.683z"/>
  <path fill="#ffffff" id="svg_3" d="m227.83,102.177l0,204.475c0,4.143 3.357,7.5 7.5,7.5s7.5,-3.357 7.5,-7.5l0,-204.475c0,-4.143 -3.357,-7.5 -7.5,-7.5s-7.5,3.357 -7.5,7.5z"/>
  <path fill="#ffffff" id="svg_4" d="m429.755,102.271c0,-6.993 -5.689,-12.683 -12.683,-12.683l-129.43,0c-6.993,0 -12.683,5.689 -12.683,12.683l0,30.599c0,6.994 5.689,12.684 12.683,12.684l129.43,0c6.993,0 12.683,-5.689 12.683,-12.684l0,-30.599zm-15,28.282l-124.795,0l0,-25.965l124.795,0l0,25.965z"/>
  <path fill="#ffffff" id="svg_5" d="m309.251,171.102l-21.138,0c-4.143,0 -7.5,3.357 -7.5,7.5s3.357,7.5 7.5,7.5l21.138,0c4.143,0 7.5,-3.357 7.5,-7.5s-3.357,-7.5 -7.5,-7.5z"/>
  <path fill="#ffffff" id="svg_6" d="m419.357,171.102l-81.137,0c-4.143,0 -7.5,3.357 -7.5,7.5s3.357,7.5 7.5,7.5l81.138,0c4.143,0 7.5,-3.357 7.5,-7.5s-3.358,-7.5 -7.501,-7.5z"/>
  <path fill="#ffffff" id="svg_7" d="m309.251,211.649l-21.138,0c-4.143,0 -7.5,3.357 -7.5,7.5s3.357,7.5 7.5,7.5l21.138,0c4.143,0 7.5,-3.357 7.5,-7.5s-3.357,-7.5 -7.5,-7.5z"/>
  <path fill="#ffffff" id="svg_8" d="m419.357,211.649l-81.137,0c-4.143,0 -7.5,3.357 -7.5,7.5s3.357,7.5 7.5,7.5l81.138,0c4.143,0 7.5,-3.357 7.5,-7.5s-3.358,-7.5 -7.501,-7.5z"/>
  <path fill="#ffffff" id="svg_9" d="m309.251,252.198l-21.138,0c-4.143,0 -7.5,3.357 -7.5,7.5s3.357,7.5 7.5,7.5l21.138,0c4.143,0 7.5,-3.357 7.5,-7.5s-3.357,-7.5 -7.5,-7.5z"/>
  <path fill="#ffffff" id="svg_10" d="m419.357,252.198l-81.137,0c-4.143,0 -7.5,3.357 -7.5,7.5s3.357,7.5 7.5,7.5l81.138,0c4.143,0 7.5,-3.357 7.5,-7.5s-3.358,-7.5 -7.501,-7.5z"/>
  <path fill="#ffffff" id="svg_11" d="m486.558,348.374c-4.878,-4.164 -10.232,-7.599 -15.898,-10.299l0,-277.333c0,-13.548 -11.022,-24.57 -24.57,-24.57l-92.876,0c-4.143,0 -7.5,3.357 -7.5,7.5s3.357,7.5 7.5,7.5l92.876,0c5.277,0 9.57,4.293 9.57,9.57l0,272.113c-7.042,-1.606 -14.335,-2.17 -21.652,-1.604c-13.422,-27.709 -41.226,-45.31 -72.352,-45.31c-19.179,0 -37.763,6.889 -52.33,19.396c-12.831,11.018 -21.853,25.759 -25.813,42.003c-10.697,0.94 -20.829,4.487 -29.671,10.315l-229.271,0c-5.277,0 -9.571,-4.294 -9.571,-9.571l0,-287.342c0,-5.277 4.294,-9.57 9.571,-9.57l298.654,0c4.143,0 7.5,-3.357 7.5,-7.5s-3.357,-7.5 -7.5,-7.5l-298.654,0c-13.549,0 -24.571,11.022 -24.571,24.57l0,287.343c0,13.549 11.022,24.571 24.571,24.571l213.251,0c-8.455,11.132 -13.038,24.616 -13.038,38.802c0,35.494 28.876,64.37 64.37,64.37l115.209,0c4.143,0 7.5,-3.357 7.5,-7.5s-3.357,-7.5 -7.5,-7.5l-115.209,0c-27.223,0 -49.37,-22.147 -49.37,-49.37c0,-13.226 5.191,-25.669 14.618,-35.035c9.312,-9.252 21.696,-14.335 34.908,-14.335c0.126,0.001 0.255,0.002 0.377,0.001c3.674,0 6.81,-2.663 7.401,-6.294c2.465,-15.129 10.281,-29.007 22.008,-39.076c11.849,-10.174 26.963,-15.777 42.559,-15.777c26.9,0 50.753,16.167 60.768,41.188c1.301,3.251 4.682,5.168 8.139,4.62c16.609,-2.637 33.467,2.113 46.257,13.032c12.826,10.949 20.181,26.861 20.181,43.653c0,31.646 -25.747,57.394 -57.395,57.394l-5.255,0c-4.143,0 -7.5,3.357 -7.5,7.5s3.357,7.5 7.5,7.5l5.255,0c39.919,0 72.395,-32.476 72.395,-72.394c0,-21.188 -9.273,-41.257 -25.442,-55.061z"/>
 </g>
</svg>