<svg width="60" height="60" xmlns="http://www.w3.org/2000/svg">

 <g>
  <title>background</title>
  <rect fill="none" id="canvas_background" height="402" width="582" y="-1" x="-1"/>
 </g>
 <g>
  <title>Layer 1</title>
  <path fill="#ffffff" d="m56,10l-35.5,0l-2.3,-7.609c-0.54446,-1.77225 -2.41392,-2.7761 -4.192,-2.251l-5.093,1.5c-0.56105,0.16595 -1.06979,0.47388 -1.477,0.894l-5.738,5.943c-0.43146,0.4509 -0.72919,1.01279 -0.86,1.623c-0.585,2.7 -2.2,12.488 1.63,25.15s10.6,19.976 12.59,21.915c0.44589,0.43773 1.00412,0.74366 1.613,0.884l8.093,1.867c0.25022,0.05782 0.50619,0.087 0.763,0.087c0.32631,-0.00026 0.65091,-0.04706 0.964,-0.139l2.818,-0.831l2.271,-0.67c0.86457,-0.24912 1.59212,-0.83642 2.018,-1.629c0.42435,-0.77921 0.51768,-1.69628 0.259,-2.545l-1.267,-4.189l23.408,0c2.20914,0 4,-1.79086 4,-4l0,-32c0,-2.20914 -1.79086,-4 -4,-4zm-15.75,19.7l17.627,-16.366c0.07928,0.2132 0.1209,0.43855 0.123,0.666l0,32c-0.00287,0.21428 -0.04036,0.42668 -0.111,0.629l-17.639,-16.929zm15.75,-17.7c0.11343,0.00166 0.22651,0.01303 0.338,0.034l-20.938,19.434c-0.76711,0.71143 -1.95289,0.71143 -2.72,0l-14.4,-13.331l1.061,-0.313c0.86292,-0.25085 1.58893,-0.83778 2.015,-1.629c0.42379,-0.77873 0.51641,-1.69523 0.257,-2.543l-0.503,-1.652l34.89,0zm-40.266,29.231c-2.06453,-2.52742 -3.59964,-5.44426 -4.514,-8.577c-1.29157,-3.9474 -1.46771,-8.17484 -0.509,-12.216c0.02065,-0.0545 0.06654,-0.09555 0.123,-0.11l5.207,-1.535l11.744,10.868l-12.051,11.57zm16.1,14.551c-0.1734,0.32137 -0.469,0.55929 -0.82,0.66l-1.326,0.391l-2.435,-8.058c-0.09831,-0.34805 -0.37689,-0.61589 -0.72853,-0.70045c-0.35164,-0.08456 -0.72154,0.02733 -0.96735,0.29263c-0.24581,0.26529 -0.32921,0.64264 -0.21812,0.98682l2.436,8.046l-1.846,0.544c-0.23209,0.06895 -0.4781,0.07653 -0.714,0.022l-8.093,-1.866c-0.25078,-0.0586 -0.48054,-0.18525 -0.664,-0.366c-1.9,-1.855 -8.387,-8.858 -12.074,-21.062s-2.149,-21.572 -1.59,-24.15c0.05377,-0.24741 0.1749,-0.47513 0.35,-0.658l5.732,-5.94c0.16535,-0.17138 0.37195,-0.29741 0.6,-0.366l1.861,-0.548l2.435,8.057c0.12741,0.42204 0.51615,0.71085 0.957,0.711c0.09796,0.0005 0.19542,-0.01401 0.289,-0.043c0.52842,-0.15976 0.82742,-0.71748 0.668,-1.246l-2.427,-8.044l1.314,-0.387c0.72584,-0.2188 1.49253,0.18752 1.719,0.911l3.4,11.26c0.10441,0.33769 0.06836,0.70321 -0.1,1.014c-0.1739,0.32116 -0.46924,0.55924 -0.82,0.661l-1.327,0.391l-0.393,-1.3c-0.16982,-0.51524 -0.71949,-0.80111 -1.23883,-0.64427c-0.51935,0.15683 -0.81892,0.69915 -0.67517,1.22227l0.389,1.288l-5.258,1.55c-0.72086,0.21063 -1.28265,0.77733 -1.487,1.5c-1.05483,4.40263 -0.87315,9.01107 0.525,13.317c1.22789,4.37051 3.63108,8.32048 6.948,11.42c0.56402,0.49736 1.34518,0.66759 2.065,0.45l5.271,-1.554l0.393,1.3c0.09831,0.34805 0.37689,0.61589 0.72853,0.70045c0.35164,0.08456 0.72154,-0.02733 0.96735,-0.29263c0.24581,-0.26529 0.32921,-0.64264 0.21812,-0.98682l-0.389,-1.288l1.313,-0.387c0.72592,-0.21711 1.49174,0.1885 1.72,0.911l3.4,11.261c0.10519,0.33992 0.06802,0.70797 -0.103,1.02l-0.005,0zm0.153,-7.782l-1.532,-5.071c-0.54531,-1.77556 -2.41953,-2.78006 -4.2,-2.251l-8.5,2.506c-0.06104,0.0183 -0.12715,0.00642 -0.178,-0.032c-0.14,-0.123 -0.3,-0.276 -0.485,-0.45l12.164,-11.68l2.064,1.911c1.53714,1.41734 3.90486,1.41734 5.442,0l2.02,-1.876l17.607,16.9c-0.12794,0.0271 -0.25823,0.0415 -0.389,0.043l-24.013,0z" id="Shape"/>
  <path fill="#ffffff" d="m26,16l16,0c0.55228,0 1,-0.44772 1,-1s-0.44772,-1 -1,-1l-16,0c-0.55228,0 -1,0.44772 -1,1s0.44772,1 1,1z" id="Shape"/>
  <path fill="#ffffff" d="m55,22c-0.55228,0 -1,0.44772 -1,1l0,14c0,0.55228 0.44772,1 1,1s1,-0.44772 1,-1l0,-14c0,-0.55228 -0.44772,-1 -1,-1z" id="Shape"/>
 </g>
</svg>