<svg width="510.99999999999994" height="512" xmlns="http://www.w3.org/2000/svg">

 <g>
  <title>background</title>
  <rect fill="none" id="canvas_background" height="402" width="582" y="-1" x="-1"/>
 </g>
 <g>
  <title>Layer 1</title>
  <path fill="#ffffff" id="svg_1" d="m290.941406,127.269531c-4.664062,-4.660156 -10.863281,-7.230469 -17.457031,-7.230469s-12.792969,2.570313 -17.453125,7.230469c-4.664062,4.664063 -7.234375,10.863281 -7.234375,17.457031s2.570313,12.792969 7.230469,17.453126l42.054687,42.054687c4.660157,4.660156 10.863281,7.230469 17.457031,7.230469s12.789063,-2.570313 17.453126,-7.230469l89.851562,-89.851563c4.664062,-4.664062 7.230469,-10.863281 7.230469,-17.453124c0,-6.59375 -2.566407,-12.792969 -7.230469,-17.457032c-4.660156,-4.664062 -10.863281,-7.230468 -17.457031,-7.230468s-12.792969,2.566406 -17.453125,7.230468l-9.90625,9.90625c-7.339844,-5.601562 -15.394532,-10.09375 -23.929688,-13.34375l0,-11.230468c0,-13.613282 -11.074218,-24.6875 -24.683594,-24.6875l-77.40625,0l0,-8.570313c0,-17.394531 -14.152343,-31.546875 -31.546874,-31.546875l-86.324219,0c-17.394531,0 -31.546875,14.152344 -31.546875,31.546875l0,35.644531c0,9.664063 7.863281,17.527344 17.527344,17.527344l114.363281,0c9.664062,0 17.527343,-7.863281 17.527343,-17.527344l0,-12.050781l77.402344,0c5.328125,0 9.664063,4.335937 9.664063,9.664063l0,6.917968c-6.183594,-1.25 -12.511719,-1.914062 -18.914063,-1.914062c-52.613281,0 -95.417968,42.804687 -95.417968,95.417968c0,52.613282 42.804687,95.417969 95.417968,95.417969c6.417969,0 12.746094,-0.644531 18.914063,-1.882812l0,228.554687c0,5.328125 -4.335938,9.660156 -9.664063,9.660156l-304.226562,0c-5.328125,0 -9.660156,-4.332031 -9.660156,-9.660156l0,-422.511718c0,-5.328126 4.332031,-9.664063 9.660156,-9.664063l49.933594,0c4.148437,0 7.511718,-3.363281 7.511718,-7.511719c0,-4.148437 -3.363281,-7.511718 -7.511718,-7.511718l-49.933594,0c-13.609375,0 -24.683594,11.074218 -24.683594,24.6875l0,422.511718c0,13.609375 11.074219,24.683594 24.683594,24.683594l304.230468,0c13.609376,0 24.683594,-11.074219 24.683594,-24.683594l0,-232.898437c11.960938,-4.550781 22.992188,-11.496094 32.429688,-20.632813c17.84375,-17.277344 28.144531,-40.441406 28.996094,-65.226562c0.140624,-4.144532 -3.101563,-7.621094 -7.25,-7.765625c-4.117188,-0.136719 -7.621094,3.101562 -7.765626,7.25c-1.199218,34.886719 -24.140624,63.691406 -55.644531,73.742187c-0.433593,0.101563 -0.855469,0.234375 -1.253906,0.410156c-7.414063,2.230469 -15.285156,3.425782 -23.449219,3.425782c-44.328125,0 -80.394531,-36.066406 -80.394531,-80.394532c0,-44.328124 36.066406,-80.394531 80.394531,-80.394531c17.027344,0 33.484375,5.382813 47.136719,15.277344l-51.757813,51.761719l-24.597656,-24.601563zm-53.957031,-60.078125c0,1.382813 -1.121094,2.503906 -2.503906,2.503906l-114.363281,0c-1.382813,0 -2.503907,-1.121093 -2.503907,-2.503906l0,-35.644531c0,-9.113281 7.410157,-16.523437 16.523438,-16.523437l86.324219,0c9.109374,0 16.523437,7.410156 16.523437,16.523437l0,35.644531zm161.574219,22.90625c1.824218,-1.828125 4.25,-2.832031 6.828125,-2.832031c2.582031,0 5.007812,1.007813 6.835937,2.832031c3.765625,3.765625 3.765625,9.898438 0,13.664063l-89.855468,89.851562c-1.824219,1.824219 -4.25,2.832031 -6.832032,2.832031c-2.582031,0 -5.007812,-1.007812 -6.832031,-2.832031l-42.054687,-42.054687c-1.824219,-1.824219 -2.828126,-4.25 -2.828126,-6.832032c0,-2.582031 1.003907,-5.007812 2.832032,-6.832031c1.824218,-1.824219 4.25,-2.832031 6.832031,-2.832031c2.578125,0 5.007813,1.007812 6.832031,2.832031l29.910156,29.910157c2.933594,2.933593 7.6875,2.933593 10.621094,0l77.710938,-77.707032zm0,0"/>
  <path fill="#ffffff" id="svg_2" d="m204.9375,188.546875l-91.527344,0c-4.148437,0 -7.507812,3.363281 -7.507812,7.511719c0,4.144531 3.359375,7.507812 7.507812,7.507812l91.527344,0c4.148438,0 7.511719,-3.363281 7.511719,-7.507812c0,-4.148438 -3.363281,-7.511719 -7.511719,-7.511719zm0,0"/>
  <path fill="#ffffff" id="svg_3" d="m99.074219,111.011719l-50.542969,0c-4.148438,0 -7.511719,3.363281 -7.511719,7.511719c0,4.148437 3.363281,7.511718 7.511719,7.511718l50.542969,0c4.148437,0 7.511719,-3.363281 7.511719,-7.511718c0,-4.148438 -3.363282,-7.511719 -7.511719,-7.511719zm0,0"/>
  <path fill="#ffffff" id="svg_4" d="m113.410156,238.414062l91.527344,0c4.148438,0 7.511719,-3.363281 7.511719,-7.511718c0,-4.144532 -3.363281,-7.507813 -7.511719,-7.507813l-91.527344,0c-4.148437,0 -7.507812,3.363281 -7.507812,7.507813c0,4.148437 3.359375,7.511718 7.507812,7.511718zm0,0"/>
  <path fill="#ffffff" id="svg_5" d="m236.554688,279.648438l-123.144532,0c-4.148437,0 -7.507812,3.363281 -7.507812,7.511718c0,4.148438 3.359375,7.511719 7.507812,7.511719l123.144532,0c4.148437,0 7.511718,-3.363281 7.511718,-7.511719c0,-4.148437 -3.363281,-7.511718 -7.511718,-7.511718zm0,0"/>
  <path fill="#ffffff" id="svg_6" d="m113.410156,329.519531l61.574219,0c4.148437,0 7.507813,-3.363281 7.507813,-7.511719c0,-4.148437 -3.359376,-7.511718 -7.507813,-7.511718l-61.574219,0c-4.148437,0 -7.507812,3.363281 -7.507812,7.511718c0,4.148438 3.359375,7.511719 7.507812,7.511719zm0,0"/>
  <path fill="#ffffff" id="svg_7" d="m113.410156,385.871094l91.527344,0c4.148438,0 7.511719,-3.363282 7.511719,-7.511719s-3.363281,-7.511719 -7.511719,-7.511719l-91.527344,0c-4.148437,0 -7.507812,3.363282 -7.507812,7.511719s3.359375,7.511719 7.507812,7.511719zm0,0"/>
  <path fill="#ffffff" id="svg_8" d="m113.410156,420.714844l123.144532,0c4.148437,0 7.511718,-3.363282 7.511718,-7.511719c0,-4.144531 -3.363281,-7.507813 -7.511718,-7.507813l-123.144532,0c-4.148437,0 -7.507812,3.363282 -7.507812,7.507813c0,4.148437 3.359375,7.511719 7.507812,7.511719zm0,0"/>
  <path fill="#ffffff" id="svg_9" d="m64.472656,182.035156c-16.730468,0 -30.339844,13.609375 -30.339844,30.339844s13.609376,30.339844 30.339844,30.339844c16.730469,0 30.339844,-13.609375 30.339844,-30.339844s-13.609375,-30.339844 -30.339844,-30.339844zm0,45.65625c-8.445312,0 -15.316406,-6.871094 -15.316406,-15.316406s6.871094,-15.316406 15.316406,-15.316406c8.445313,0 15.316406,6.871094 15.316406,15.316406s-6.871093,15.316406 -15.316406,15.316406zm0,0"/>
  <path fill="#ffffff" id="svg_10" d="m64.472656,274.242188c-16.730468,0 -30.339844,13.613281 -30.339844,30.339843c0,16.730469 13.609376,30.339844 30.339844,30.339844c16.730469,0 30.339844,-13.609375 30.339844,-30.339844c0,-16.726562 -13.609375,-30.339843 -30.339844,-30.339843zm0,45.660156c-8.445312,0 -15.316406,-6.871094 -15.316406,-15.316406c0,-8.449219 6.871094,-15.320313 15.316406,-15.320313c8.445313,0 15.316406,6.871094 15.316406,15.320313c0,8.445312 -6.871093,15.316406 -15.316406,15.316406zm0,0"/>
  <path fill="#ffffff" id="svg_11" d="m64.472656,365.441406c-16.730468,0 -30.339844,13.609375 -30.339844,30.339844s13.609376,30.339844 30.339844,30.339844c16.730469,0 30.339844,-13.609375 30.339844,-30.339844s-13.609375,-30.339844 -30.339844,-30.339844zm0,45.65625c-8.445312,0 -15.316406,-6.871094 -15.316406,-15.316406s6.871094,-15.316406 15.316406,-15.316406c8.445313,0 15.316406,6.871094 15.316406,15.316406s-6.871093,15.316406 -15.316406,15.316406zm0,0"/>
 </g>
</svg>