<svg width="64" height="64" xmlns="http://www.w3.org/2000/svg">

 <g>
  <title>background</title>
  <rect fill="none" id="canvas_background" height="402" width="582" y="-1" x="-1"/>
 </g>
 <g>
  <title>Layer 1</title>
  <path fill="#ffffff" id="svg_2" d="m54,27l-2,0c-1.654,0 -3,1.346 -3,3l0,0.382l-0.376,0.188c-1.002,0.501 -1.624,1.508 -1.624,2.627c0,0.785 0.306,1.522 0.86,2.077l1.14,1.14l0,8.95c0,0.141 -0.058,0.279 -0.157,0.379c-0.121,0.12 -0.292,0.176 -0.46,0.151l-0.566,-0.087c-0.417,-1.375 -1.495,-2.29 -2.394,-3.044c-0.885,-0.742 -1.423,-1.232 -1.423,-1.763c0,-1.377 0.229,-2.291 0.47,-3.257c0.26,-1.042 0.53,-2.12 0.53,-3.743c0,-2.673 -1.38,-4.633 -2,-5.379l0,-0.121c0,-6.341 -5.159,-11.5 -11.5,-11.5s-11.5,5.159 -11.5,11.5l0,6.871c-1.067,0.605 -3,2.178 -3,5.629c0,1.697 0.76,3.166 1.823,4.4l-3.204,0.493c-0.173,0.026 -0.341,-0.031 -0.461,-0.151c-0.1,-0.1 -0.157,-0.238 -0.157,-0.379l0,-8.95l1.14,-1.14c0.553,-0.553 0.859,-1.291 0.859,-2.076c0,-1.12 -0.622,-2.126 -1.624,-2.627l-0.376,-0.188l0,-0.382c0,-1.654 -1.346,-3 -3,-3l-2,0c-1.654,0 -3,1.346 -3,3l0,16.406c0,1.939 0.755,3.763 2.127,5.136c1.596,1.595 3.796,2.353 6.036,2.07l4.837,-0.604l0,9.992l24,0l0,-9.992l4.837,0.604c2.238,0.284 4.439,-0.475 6.036,-2.071c1.372,-1.372 2.127,-3.196 2.127,-5.135l0,-16.406c0,-1.654 -1.346,-3 -3,-3zm-4.481,5.359l1.481,-0.741l0,-1.618c0,-0.551 0.448,-1 1,-1l2,0c0.552,0 1,0.449 1,1l0,5l-4.586,0l-1.14,-1.14c-0.176,-0.177 -0.274,-0.412 -0.274,-0.663c0,-0.357 0.198,-0.678 0.519,-0.838zm-28.203,4.59l0.684,-0.228l0,-8.221c0,-5.238 4.262,-9.5 9.5,-9.5s9.5,4.262 9.5,9.5l0,0.914l0.293,0.293c0.017,0.017 1.707,1.737 1.707,4.293c0,1.377 -0.229,2.291 -0.47,3.257c-0.26,1.042 -0.53,2.12 -0.53,3.743c0,1.503 1.136,2.455 2.138,3.295c0.446,0.374 0.878,0.737 1.215,1.132l-8.353,-1.285l0,-1.907c1.826,-1.468 3,-3.715 3,-6.235l0,-8l-5.395,0c-2.161,0 -4.253,-0.633 -6.051,-1.832l-0.554,-0.37l-4,2.667l0,7.535c0,2.943 1.602,5.512 3.974,6.902c-0.049,0.591 -0.185,1.175 -0.556,1.581l-0.644,0.707l0.676,0.676c0.962,0.961 1.542,1.545 1.549,3.111l-0.064,0.831c-0.195,1.269 -0.937,3.224 -3.482,4.797c-0.629,-1.06 -1.543,-1.865 -2.373,-2.595c-0.418,-0.368 -0.777,-0.695 -1.08,-1.008l0,-0.002l-0.002,0c-0.631,-0.652 -0.998,-1.243 -0.998,-2c0,-0.6 0.108,-1.076 0.24,-1.439c2.103,1.492 4.234,2.309 4.409,2.375l0.703,-1.873c-2.045,-0.766 -7.352,-3.53 -7.352,-7.063c0,-3.187 2.23,-4.021 2.316,-4.051zm10.684,5.051c-3.309,0 -6,-2.691 -6,-6l0,-6.465l2.016,-1.344c1.994,1.185 4.257,1.809 6.589,1.809l3.395,0l0,6c0,3.309 -2.691,6 -6,6zm0,2c1.061,0 2.073,-0.212 3,-0.589l0,1.175l-3.414,3.414l-0.664,0c-0.201,-1.355 -0.798,-2.219 -1.479,-2.955c0.225,-0.432 0.357,-0.888 0.438,-1.339c0.677,0.186 1.385,0.294 2.119,0.294zm-1.072,6l0.658,0l1.011,1.011l1.268,9.989l-3.785,0l0.844,-10.968c0.001,-0.011 0.002,-0.021 0.004,-0.032zm2.486,-1l2.935,-2.935l0.162,0.025l-1.092,4.914l-2.005,-2.004zm-23.414,-20l2,0c0.552,0 1,0.449 1,1l0,1.618l1.481,0.741c0.321,0.16 0.519,0.481 0.519,0.838c0,0.25 -0.098,0.486 -0.274,0.663l-1.14,1.14l-4.586,0l0,-5c0,-0.551 0.448,-1 1,-1zm4.915,22.628c-1.63,0.201 -3.217,-0.344 -4.374,-1.5c-0.993,-0.995 -1.541,-2.317 -1.541,-3.722l0,-9.406l4,0l0,8.364c0,0.677 0.264,1.314 0.743,1.793c0.568,0.569 1.383,0.834 2.179,0.713l3.288,-0.506c-0.124,0.468 -0.21,1.009 -0.21,1.636c0,0.788 0.211,1.461 0.541,2.057l-4.626,0.571zm7.085,2.099c0.894,0.792 1.711,1.568 2.052,2.589l0.364,1.094l1.031,-0.516c1.331,-0.665 2.339,-1.426 3.113,-2.213l-0.486,6.319l-6.074,0l0,-7.273zm31.459,-3.6c-1.157,1.157 -2.746,1.703 -4.374,1.501l-4.961,-0.62l-2.124,-0.008l0,10l-6.119,0l-0.975,-7.68l1.675,1.675l1.911,-8.6l9.587,1.475c0.793,0.121 1.609,-0.145 2.178,-0.713c0.479,-0.479 0.743,-1.116 0.743,-1.793l0,-8.364l4,0l0,9.406c0,1.405 -0.548,2.727 -1.541,3.721z"/>
  <path fill="#ffffff" id="svg_3" d="m32,15c3.859,0 7,-3.14 7,-7s-3.141,-7 -7,-7s-7,3.14 -7,7s3.141,7 7,7zm0,-12c2.757,0 5,2.243 5,5s-2.243,5 -5,5s-5,-2.243 -5,-5s2.243,-5 5,-5z"/>
  <path fill="#ffffff" id="svg_4" d="m35.707,6.707l-1.414,-1.414l-3.293,3.293l-1.293,-1.293l-1.414,1.414l2.707,2.707l4.707,-4.707z"/>
  <path fill="#ffffff" id="svg_5" d="m10,25c2.206,0 4,-1.794 4,-4l0,-1.792c0,-0.669 0.33,-1.297 0.862,-1.639c2.591,-1.666 4.138,-4.495 4.138,-7.569c0,-2.56 -1.096,-5.007 -3.006,-6.713c-1.908,-1.706 -4.472,-2.518 -7.039,-2.228c-4.052,0.459 -7.365,3.723 -7.88,7.763c-0.447,3.508 1.118,6.865 4.085,8.761c0.518,0.332 0.84,0.97 0.84,1.667l0,1.75c0,2.206 1.794,4 4,4zm0,-2c-1.103,0 -2,-0.897 -2,-2l4,0c0,1.103 -0.897,2 -2,2zm-1,-13c0,-0.551 0.448,-1 1,-1s1,0.449 1,1s-0.448,1 -1,1s-1,-0.449 -1,-1zm-5.94,-0.925c0.399,-3.137 2.974,-5.673 6.12,-6.029c0.278,-0.031 0.554,-0.046 0.828,-0.046c1.726,0 3.354,0.617 4.654,1.778c1.485,1.327 2.338,3.231 2.338,5.222c0,2.39 -1.203,4.591 -3.219,5.887c-1.058,0.679 -1.704,1.832 -1.768,3.113l-1.013,0l0,-6.184c1.161,-0.414 2,-1.514 2,-2.816c0,-1.654 -1.346,-3 -3,-3s-3,1.346 -3,3c0,1.302 0.839,2.402 2,2.816l0,6.184l-1.015,0c-0.074,-1.292 -0.711,-2.44 -1.749,-3.102c-2.307,-1.475 -3.525,-4.089 -3.176,-6.823z"/>
  <path fill="#ffffff" id="svg_6" d="m63,9.279l-2.455,-0.819l1.157,-2.314l-3.848,-3.848l-2.315,1.158l-0.818,-2.456l-5.441,0l-0.818,2.456l-2.315,-1.158l-3.848,3.848l1.157,2.314l-2.456,0.819l0,5.441l2.455,0.819l-1.157,2.314l3.848,3.848l2.315,-1.158l0.818,2.457l5.441,0l0.818,-2.456l2.315,1.158l3.848,-3.848l-1.157,-2.314l2.456,-0.819l0,-5.442zm-2,4l-2.294,0.765l-0.169,0.441c-0.05,0.128 -0.1,0.255 -0.155,0.379l-0.194,0.433l1.081,2.162l-1.809,1.809l-2.162,-1.081l-0.433,0.194c-0.123,0.055 -0.248,0.105 -0.375,0.153l-0.445,0.168l-0.766,2.298l-2.559,0l-0.766,-2.298l-0.445,-0.168c-0.127,-0.048 -0.252,-0.098 -0.375,-0.153l-0.433,-0.194l-2.162,1.081l-1.809,-1.809l1.081,-2.162l-0.194,-0.433c-0.056,-0.125 -0.105,-0.251 -0.155,-0.379l-0.169,-0.441l-2.293,-0.765l0,-2.559l2.294,-0.765l0.169,-0.441c0.05,-0.128 0.1,-0.255 0.155,-0.379l0.194,-0.433l-1.081,-2.162l1.809,-1.809l2.162,1.081l0.433,-0.194c0.123,-0.055 0.248,-0.105 0.375,-0.153l0.445,-0.168l0.766,-2.297l2.559,0l0.766,2.298l0.445,0.168c0.127,0.048 0.252,0.098 0.375,0.153l0.433,0.194l2.162,-1.081l1.809,1.809l-1.081,2.162l0.194,0.433c0.056,0.125 0.105,0.251 0.155,0.379l0.169,0.441l2.293,0.765l0,2.558z"/>
  <path fill="#ffffff" id="svg_7" d="m52,7c-2.757,0 -5,2.243 -5,5s2.243,5 5,5s5,-2.243 5,-5s-2.243,-5 -5,-5zm0,8c-1.654,0 -3,-1.346 -3,-3s1.346,-3 3,-3s3,1.346 3,3s-1.346,3 -3,3z"/>
 </g>
</svg>